Land_normalized_pl08_filtered_grf
version=1
nRows=17
nColumns=37
inDegrees=yes
endheader
time		1_ground_force_vx		1_ground_force_vy		1_ground_force_vz		1_ground_force_px		1_ground_force_py		1_ground_force_pz		1_ground_torque_x		1_ground_torque_y		1_ground_torque_z		2_ground_force_vx		2_ground_force_vy		2_ground_force_vz		2_ground_force_px		2_ground_force_py		2_ground_force_pz		2_ground_torque_x		2_ground_torque_y		2_ground_torque_z		3_ground_force_vx		3_ground_force_vy		3_ground_force_vz		3_ground_force_px		3_ground_force_py		3_ground_force_pz		3_ground_torque_x		3_ground_torque_y		3_ground_torque_z		4_ground_force_vx		4_ground_force_vy		4_ground_force_vz		4_ground_force_px		4_ground_force_py		4_ground_force_pz		4_ground_torque_x		4_ground_torque_y		4_ground_torque_z		
0.866167		-62.776239		702.162187		127.300564		0.131798		0.000000		0.192999		-0.800780		8.956859		1.623863		59.668020		804.438003		125.871592		-0.130883		0.000000		0.214964		-0.297873		-4.015872		-0.628372		22.046230		1.942248		0.487208		0.375432		1.311110		1.913620		-0.095006		-0.008370		-0.002100		-18.901799		-0.204813		1.734023		-0.265598		1.309996		1.924710		0.014532		0.000157		-0.001333		
0.869374		-65.956697		721.747605		115.706594		0.132758		0.000000		0.195228		-0.847307		9.271865		1.486399		58.484896		797.193567		123.492040		-0.131312		0.000000		0.215525		-0.271746		-3.704085		-0.573796		22.018464		1.979829		0.466303		0.375446		1.311173		1.913636		-0.094995		-0.008541		-0.002012		-18.917026		-0.146204		1.811916		-0.265586		1.309994		1.924682		0.015611		0.000121		-0.001495		
0.872581		-67.387617		742.365895		103.795396		0.133508		0.000000		0.197263		-0.889353		9.797450		1.369827		57.385200		789.423931		121.060255		-0.131808		0.000000		0.216122		-0.246879		-3.396195		-0.520817		21.964633		1.962548		0.480153		0.375467		1.311229		1.913654		-0.095940		-0.008572		-0.002098		-18.992832		-0.097614		1.885867		-0.265566		1.309995		1.924660		0.016925		0.000087		-0.001681		
0.875788		-66.893150		761.799892		92.753874		0.134029		0.000000		0.199023		-0.920679		10.485114		1.276580		56.392219		781.502135		118.353966		-0.132386		0.000000		0.216811		-0.226315		-3.136334		-0.474982		21.881032		1.911376		0.512629		0.375490		1.311270		1.913672		-0.097360		-0.008505		-0.002281		-19.117052		-0.070627		1.906077		-0.265542		1.309995		1.924644		0.018533		0.000068		-0.001848		
0.878995		-64.604154		777.882498		83.764976		0.134342		0.000000		0.200496		-0.934820		11.255940		1.212075		55.679031		773.736034		115.276147		-0.133081		0.000000		0.217634		-0.210107		-2.919724		-0.434999		21.784042		1.843986		0.544685		0.375510		1.311296		1.913684		-0.098463		-0.008334		-0.002462		-19.269690		-0.072226		1.858406		-0.265513		1.309996		1.924634		0.020391		0.000076		-0.001967		
0.882202		-60.819405		788.772464		77.678670		0.134465		0.000000		0.201673		-0.926941		12.021877		1.183896		55.509255		766.353865		111.797347		-0.133927		0.000000		0.218620		-0.196640		-2.714808		-0.396046		21.708224		1.770048		0.559717		0.375526		1.311305		1.913688		-0.098493		-0.008031		-0.002540		-19.426771		-0.109668		1.772206		-0.265480		1.309995		1.924627		0.022210		0.000125		-0.002026		
0.885409		-55.951990		793.363607		74.665352		0.134417		0.000000		0.202540		-0.896412		12.710764		1.196235		56.123534		759.493958		107.919448		-0.134951		0.000000		0.219776		-0.184124		-2.491689		-0.354057		21.690616		1.696835		0.548134		0.375538		1.311297		1.913684		-0.097092		-0.007596		-0.002454		-19.562739		-0.188541		1.700700		-0.265440		1.309993		1.924619		0.023522		0.000227		-0.002045		
0.888616		-50.420852		791.239509		74.307551		0.134218		0.000000		0.203081		-0.846407		13.282681		1.247419		57.699754		753.198771		103.672743		-0.136151		0.000000		0.221074		-0.170982		-2.232007		-0.307227		21.752777		1.632426		0.508246		0.375550		1.311276		1.913675		-0.094443		-0.007087		-0.002207		-19.656023		-0.306682		1.683762		-0.265396		1.309992		1.924614		0.023908		0.000373		-0.002048		
0.891823		-44.651956		782.810008		75.784897		0.133902		0.000000		0.203315		-0.782850		13.724803		1.328729		60.325121		747.364880		99.217834		-0.137489		0.000000		0.222416		-0.154079		-1.908991		-0.253441		21.890993		1.584112		0.449439		0.375565		1.311245		1.913663		-0.091287		-0.006606		-0.001874		-19.694001		-0.447089		1.721469		-0.265348		1.309992		1.924610		0.023236		0.000527		-0.002031		
0.895030		-39.036900		769.136386		78.248044		0.133516		0.000000		0.203301		-0.712222		14.032862		1.427636		63.995619		741.734587		94.969864		-0.138873		0.000000		0.223630		-0.125670		-1.456613		-0.186505		22.078284		1.556793		0.391772		0.375583		1.311208		1.913652		-0.088668		-0.006253		-0.001574		-19.673703		-0.578602		1.772703		-0.265296		1.309995		1.924612		0.021790		0.000641		-0.001963		
0.898237		-33.903109		751.629801		81.078837		0.133120		0.000000		0.203119		-0.640521		14.200639		1.531851		68.593776		735.957638		91.658126		-0.140179		0.000000		0.224495		-0.070843		-0.760512		-0.094729		22.273105		1.551112		0.358465		0.375606		1.311168		1.913646		-0.087520		-0.006095		-0.001408		-19.599850		-0.665107		1.782488		-0.265242		1.310002		1.924621		0.020137		0.000683		-0.001831		
0.901444		-29.488367		731.853674		83.934996		0.132769		0.000000		0.202854		-0.573364		14.230075		1.632028		73.797060		729.739122		90.150894		-0.141274		0.000000		0.224815		0.029475		0.291219		0.035978		22.432059		1.560793		0.364727		0.375632		1.311133		1.913646		-0.088207		-0.006137		-0.001434		-19.482676		-0.683364		1.724118		-0.265189		1.310013		1.924638		0.018747		0.000658		-0.001659		
0.904652		-25.972016		711.171940		86.666906		0.132506		0.000000		0.202562		-0.515952		14.128034		1.721721		79.036919		723.020391		91.121030		-0.142053		0.000000		0.224508		0.188928		1.727686		0.217775		22.522882		1.575663		0.413320		0.375658		1.311105		1.913654		-0.090447		-0.006328		-0.001659		-19.329724		-0.636657		1.616234		-0.265136		1.310025		1.924659		0.017688		0.000583		-0.001479		
0.907859		-23.458307		690.650459		89.209458		0.132364		0.000000		0.202284		-0.472226		13.903138		1.795835		83.492450		716.165428		94.508686		-0.142489		0.000000		0.223714		0.395434		3.391409		0.447607		22.535865		1.588309		0.494000		0.375686		1.311089		1.913669		-0.093481		-0.006589		-0.002049		-19.142123		-0.560147		1.510019		-0.265084		1.310036		1.924684		0.016611		0.000486		-0.001310		
0.911066		-21.967853		670.988233		91.535031		0.132355		0.000000		0.202032		-0.444097		13.564542		1.850451		86.231141		710.035396		99.193141		-0.142649		0.000000		0.222840		0.595304		4.901704		0.684802		22.487571		1.600965		0.591586		0.375715		1.311084		1.913689		-0.096431		-0.006866		-0.002537		-18.917755		-0.506592		1.454441		-0.265038		1.310044		1.924710		0.015052		0.000403		-0.001157		
0.914273		-21.420290		652.587234		93.633743		0.132473		0.000000		0.201800		-0.431058		13.132573		1.884267		86.488970		705.899243		102.949257		-0.142700		0.000000		0.222549		0.698688		5.702515		0.831669		22.415786		1.624441		0.690514		0.375745		1.311084		1.913710		-0.098569		-0.007143		-0.003036		-18.662770		-0.520776		1.470444		-0.264997		1.310047		1.924735		0.012833		0.000358		-0.001011		
0.917480		-21.645714		635.650960		95.479463		0.132696		0.000000		0.201583		-0.430508		12.642363		1.898975		84.092570		705.030239		102.957825		-0.142905		0.000000		0.223599		0.625718		5.245962		0.766088		22.361801		1.668901		0.776044		0.375776		1.311087		1.913729		-0.099521		-0.007427		-0.003454		-18.402626		-0.612837		1.549122		-0.264964		1.310045		1.924762		0.010253		0.000341		-0.000863		
